<svg width="20" height="20" viewBox="0 0 20 20" fill="none" xmlns="http://www.w3.org/2000/svg">
<path d="M3.54167 6.66667V4.58333C3.54167 3.08756 4.75423 1.875 6.25 1.875H12.1899L12.3454 1.87907C13.1177 1.91742 13.8508 2.24114 14.4002 2.79053L16.3761 4.76644L16.4836 4.87874C17.0026 5.45199 17.2917 6.19974 17.2917 6.97673V15.4167C17.2917 16.9124 16.0791 18.125 14.5833 18.125H11.6667C11.3215 18.125 11.0417 17.8452 11.0417 17.5C11.0417 17.1548 11.3215 16.875 11.6667 16.875H14.5833C15.3887 16.875 16.0417 16.2221 16.0417 15.4167V6.97673C16.0417 6.54148 15.8904 6.12146 15.6169 5.78776L15.4924 5.65023L13.5164 3.67432C13.2087 3.36661 12.8048 3.17655 12.3755 3.13395L12.1899 3.125H6.25C5.44458 3.125 4.79167 3.77792 4.79167 4.58333V6.66667C4.79167 7.01184 4.51184 7.29167 4.16667 7.29167C3.82149 7.29167 3.54167 7.01184 3.54167 6.66667Z" fill="#020618"/>
<path d="M11.875 5.41682V2.51968C11.875 2.17451 12.1548 1.89468 12.5 1.89468C12.8452 1.89468 13.125 2.17451 13.125 2.51968V5.41682C13.1251 5.76193 13.4049 6.04182 13.75 6.04182H16.6471L16.7106 6.04507C17.0259 6.07694 17.2721 6.34311 17.2721 6.66682C17.2721 6.99047 17.0259 7.25671 16.7106 7.28856L16.6471 7.29182H13.75C12.7145 7.29182 11.8751 6.45228 11.875 5.41682Z" fill="#020618"/>
<path d="M4.13249 15.6307C3.56751 15.6893 3.12684 16.1663 3.125 16.7464V16.875H7.70833V16.7464L7.70264 16.6325C7.64789 16.105 7.22838 15.6854 6.70085 15.6307L6.58691 15.625H4.24642L4.13249 15.6307ZM8.95833 17.0833C8.95833 17.6586 8.49196 18.125 7.91667 18.125H2.91667C2.34137 18.125 1.875 17.6586 1.875 17.0833V16.7432L1.88802 16.5015C2.01209 15.3088 3.01843 14.3785 4.24316 14.375H6.59017L6.83187 14.388C8.02457 14.5121 8.95481 15.5184 8.95833 16.7432V17.0833Z" fill="#020618"/>
<path d="M6.45833 11.25C6.45833 10.6747 5.99196 10.2083 5.41667 10.2083C4.84137 10.2083 4.375 10.6747 4.375 11.25C4.375 11.8253 4.84137 12.2917 5.41667 12.2917C5.99196 12.2917 6.45833 11.8253 6.45833 11.25ZM7.70833 11.25C7.70833 12.5157 6.68232 13.5417 5.41667 13.5417C4.15101 13.5417 3.125 12.5157 3.125 11.25C3.125 9.98435 4.15101 8.95833 5.41667 8.95833C6.68232 8.95833 7.70833 9.98435 7.70833 11.25Z" fill="#020618"/>
</svg>
